<svg width="35" height="35" viewBox="0 0 35 35" fill="none" xmlns="http://www.w3.org/2000/svg">
<path fill-rule="evenodd" clip-rule="evenodd" d="M10.8048 12.0923L18.884 4.01316C19.7298 3.15274 21.1007 3.15274 21.9611 3.99858C22.4861 4.52358 22.7048 5.26733 22.559 5.99649L21.1736 12.6757H29.4132C32.5486 12.6757 34.6632 15.884 33.4382 18.7715L28.684 29.8694C28.2173 30.934 27.1673 31.634 26.0007 31.634H12.8757C11.2715 31.634 9.95898 30.3215 9.95898 28.7173V14.1486C9.95898 13.3757 10.2652 12.6319 10.8048 12.0923ZM7.04232 28.7173C7.04232 30.3215 5.72982 31.634 4.12565 31.634C2.52148 31.634 1.20898 30.3215 1.20898 28.7173V17.0507C1.20898 15.4465 2.52148 14.134 4.12565 14.134C5.72982 14.134 7.04232 15.4465 7.04232 17.0507V28.7173Z" fill="#6D7D8B"/>
</svg>
